<svg width="17" height="16" viewBox="0 0 17 16" fill="none" xmlns="http://www.w3.org/2000/svg">
<path d="M8.66321 0C4.27611 0 0.663208 3.6129 0.663208 8C0.663208 12.4301 4.27611 16 8.66321 16C13.0933 16 16.6632 12.3871 16.6632 8C16.6632 3.6129 13.0933 0 8.66321 0ZM10.6847 8.30107H9.39439C9.39439 10.3656 9.39439 12.9462 9.39439 12.9462H7.45891C7.45891 12.9462 7.45891 10.4086 7.45891 8.30107H6.55568V6.66667H7.45891V5.5914C7.45891 4.8172 7.80299 3.65591 9.39439 3.65591H10.8137V5.24731C10.8137 5.24731 9.95353 5.24731 9.78149 5.24731C9.60944 5.24731 9.35138 5.33333 9.35138 5.67742V6.62366H10.8137L10.6847 8.30107Z" fill="#E5B962"/>
</svg>
