<svg width="16" height="16" viewBox="0 0 16 16" fill="none" xmlns="http://www.w3.org/2000/svg">
<path d="M7.83156 9.38959C8.71577 9.38959 9.38946 8.6738 9.38946 7.83169C9.38946 7.49485 9.26314 7.15801 9.09472 6.90538C8.79999 6.52643 8.33683 6.23169 7.83156 6.23169C7.3263 6.23169 6.86314 6.48432 6.56841 6.90538C6.39999 7.15801 6.27367 7.49485 6.27367 7.83169C6.27367 8.7159 6.98946 9.38959 7.83156 9.38959Z" fill="#E5B962"/>
<path d="M11.2842 5.93684V4.42105H9.76845V5.93684H11.2842Z" fill="#E5B962"/>
<path d="M7.83158 0C3.53684 0 0 3.53684 0 7.83158C0 12.1684 3.53684 15.6632 7.83158 15.6632C12.1684 15.6632 15.6632 12.1263 15.6632 7.83158C15.6632 3.53684 12.1684 0 7.83158 0ZM12.2947 10.5684C12.2947 11.5368 11.5368 12.2947 10.5684 12.2947H5.09474C4.12632 12.2947 3.36842 11.5368 3.36842 10.5684V5.09474C3.36842 4.16842 4.16842 3.36842 5.09474 3.36842H10.5684C11.5368 3.36842 12.2947 4.12632 12.2947 5.09474V10.5684Z" fill="#E5B962"/>
<path d="M10.2737 7.83164C10.2737 9.179 9.17895 10.2737 7.83158 10.2737C6.48421 10.2737 5.38947 9.179 5.38947 7.83164C5.38947 7.49479 5.47368 7.20006 5.5579 6.90532H4.21053V10.5685C4.21053 11.0316 4.58947 11.4106 5.05263 11.4106H10.5263C10.9895 11.4106 11.3684 11.0316 11.3684 10.5685V6.90532H10.1053C10.2316 7.20006 10.2737 7.5369 10.2737 7.83164Z" fill="#E5B962"/>
</svg>
