<svg width="17" height="16" viewBox="0 0 17 16" fill="none" xmlns="http://www.w3.org/2000/svg">
<path d="M8.66321 0C4.23814 0 0.663208 3.57493 0.663208 8C0.663208 12.4033 4.23814 16 8.66321 16C13.0883 16 16.6632 12.4251 16.6632 8C16.6414 3.57493 13.0665 0 8.66321 0ZM12.7177 8.85014C13.0883 9.22071 13.4806 9.54768 13.8294 9.96185C13.982 10.1362 14.1128 10.3324 14.2218 10.5286C14.3744 10.8338 14.2436 11.139 13.982 11.1608H12.3471C11.933 11.2044 11.5842 11.03 11.3008 10.7466C11.0828 10.5068 10.8648 10.267 10.6469 10.0272C10.5597 9.94005 10.4725 9.83106 10.3417 9.76567C10.1237 9.61308 9.92751 9.65668 9.79672 9.89646C9.66593 10.1362 9.64413 10.3978 9.62234 10.6594C9.60054 11.0518 9.49155 11.139 9.09918 11.1608C8.27084 11.2044 7.4861 11.0736 6.76675 10.6594C6.1128 10.2888 5.63324 9.76567 5.19727 9.17711C4.34713 8.0218 3.69318 6.77929 3.12642 5.47139C2.99563 5.18801 3.08283 5.01362 3.4098 5.01362C3.95476 5.01362 4.47792 5.01362 5.02288 5.01362C5.24086 5.01362 5.39345 5.14441 5.45885 5.3406C5.74223 6.05995 6.091 6.73569 6.54877 7.34605C6.65776 7.52044 6.78855 7.67302 6.96294 7.80381C7.15912 7.93461 7.28991 7.89101 7.3771 7.67303C7.4425 7.54223 7.4643 7.38965 7.4643 7.25886C7.50789 6.75749 7.50789 6.27793 7.4425 5.77657C7.3989 5.47139 7.22452 5.2752 6.91934 5.20981C6.76675 5.18801 6.78855 5.12262 6.85394 5.03542C6.98473 4.88283 7.11552 4.79564 7.35531 4.79564H9.20817C9.49155 4.86104 9.55694 4.99183 9.60054 5.2752V7.32425C9.60054 7.43324 9.66593 7.78202 9.86212 7.84741C10.0365 7.89101 10.1237 7.76022 10.2327 7.67303C10.6687 7.19346 10.9956 6.6485 11.279 6.08174C11.4098 5.82016 11.5188 5.55858 11.606 5.297C11.6932 5.10082 11.8022 5.01362 12.0202 5.01362H13.8076C13.8512 5.01362 13.9166 5.01362 13.9602 5.01362C14.2654 5.05722 14.3526 5.18801 14.2436 5.49319C14.091 5.95095 13.8076 6.34332 13.546 6.7139C13.2409 7.12807 12.9357 7.52044 12.6305 7.93461C12.3471 8.32698 12.3689 8.52316 12.7177 8.85014Z" fill="#E5B962"/>
</svg>
