<svg width="17" height="16" viewBox="0 0 17 16" fill="none" xmlns="http://www.w3.org/2000/svg">
<path d="M7.66634 9.5L10.2695 8L7.66634 6.5V9.5Z" fill="#E5B962"/>
<path d="M8.66321 0C4.24446 0 0.663208 3.58125 0.663208 8C0.663208 12.4187 4.24446 16 8.66321 16C13.082 16 16.6632 12.4187 16.6632 8C16.6632 3.58125 13.082 0 8.66321 0ZM13.6632 8.00937C13.6632 8.00937 13.6632 9.63125 13.457 10.4156C13.3413 10.8438 13.0038 11.1812 12.5757 11.2969C11.7913 11.5 8.66321 11.5 8.66321 11.5C8.66321 11.5 5.54133 11.5 4.75071 11.2844C4.32258 11.1687 3.98508 10.8313 3.86946 10.4031C3.66321 9.63125 3.66321 8 3.66321 8C3.66321 8 3.66321 6.37813 3.86946 5.59688C3.98508 5.16875 4.33196 4.82188 4.75071 4.70625C5.53508 4.5 8.66321 4.5 8.66321 4.5C8.66321 4.5 11.7913 4.5 12.5757 4.71562C13.0038 4.83125 13.3413 5.16875 13.457 5.59688C13.6695 6.37813 13.6632 8.00937 13.6632 8.00937Z" fill="#E5B962"/>
</svg>
